<svg version="1.1" id="Layer_1" xmlns="http://www.w3.org/2000/svg" xmlns:xlink="http://www.w3.org/1999/xlink" x="0px" y="0px"
	 width="100%" viewBox="0 0 512 512" enable-background="new 0 0 512 512" xml:space="preserve">
<path fill="#0B69C7" opacity="1.000000" stroke="none" 
	d="
M225.000000,1.000003 
	C246.020889,1.000000 267.041779,1.000000 288.384796,1.410184 
	C289.548798,2.209600 290.356598,2.814584 291.238007,2.953962 
	C298.338501,4.076766 305.585480,4.569978 312.539062,6.271639 
	C337.067200,12.274072 360.641479,20.748854 382.766693,33.234196 
	C410.691589,48.992355 434.679504,69.425842 455.105713,93.886406 
	C469.839172,111.529861 481.912018,130.994934 491.177734,152.224625 
	C501.050690,174.845596 508.196625,198.103073 511.081085,222.643799 
	C511.180878,223.492661 512.336487,224.217407 513.000000,225.000000 
	C513.000000,246.020889 513.000000,267.041779 512.590576,288.383972 
	C511.117798,294.397552 510.104889,300.099884 508.982086,305.780457 
	C504.789825,326.989899 498.298157,347.476807 488.949951,366.974060 
	C479.127869,387.459564 467.428131,406.874084 451.822815,423.475433 
	C439.958679,436.096893 427.852600,448.718811 414.442902,459.601593 
	C397.849426,473.068359 379.365204,483.926453 359.486725,492.278076 
	C337.554260,501.492676 315.072723,508.422302 291.360382,511.082092 
	C290.512543,511.177185 289.784088,512.336609 289.000000,513.000000 
	C267.979095,513.000000 246.958206,513.000000 225.616882,512.591309 
	C224.454102,511.792450 223.646042,511.186188 222.763992,511.046265 
	C215.651276,509.917908 208.399155,509.398163 201.424454,507.717773 
	C174.430115,501.213989 148.747803,491.425385 124.834488,477.036377 
	C97.495628,460.586090 74.135262,439.606598 54.467396,414.740631 
	C41.185802,397.948761 30.180017,379.558167 21.811403,359.649628 
	C12.569781,337.664276 5.594249,315.141510 2.917949,291.372589 
	C2.822011,290.520569 1.663363,289.788147 1.000000,289.000000 
	C1.000000,267.645782 1.000000,246.291550 1.405400,224.621353 
	C2.203227,223.464432 2.808069,222.658722 2.954320,221.776932 
	C4.077383,215.005676 4.639161,208.104797 6.255745,201.458328 
	C12.821185,174.464981 22.524372,148.733505 36.963615,124.819923 
	C52.212158,99.566002 71.307228,77.637794 93.871887,58.881348 
	C114.231979,41.957413 136.787720,28.397102 161.588516,18.742115 
	C181.328674,11.057245 201.537430,5.331036 222.634384,2.917825 
	C223.484924,2.820535 224.214218,1.663359 225.000000,1.000003 
M277.094543,226.608231 
	C275.177338,228.759506 273.260132,230.910767 270.449188,234.064896 
	C270.449188,229.434509 270.521759,226.151840 270.433929,222.873459 
	C270.257080,216.275024 267.539307,213.514526 260.873505,213.461533 
	C249.207733,213.368774 237.540192,213.371811 225.874344,213.460739 
	C218.989243,213.513214 216.153824,216.369064 216.149246,223.264816 
	C216.115631,273.930847 216.114914,324.596893 216.149643,375.262939 
	C216.154343,382.113586 219.077728,384.958923 225.929337,384.988495 
	C237.095657,385.036682 248.262344,385.011566 259.428864,384.998474 
	C267.695496,384.988770 270.147369,382.565399 270.152527,374.318909 
	C270.168579,348.652557 270.088501,322.985870 270.194977,297.319977 
	C270.234924,287.682770 272.328888,278.459656 277.495850,270.182922 
	C283.998077,259.767334 293.772339,256.497437 305.479095,257.958710 
	C316.316010,259.311371 323.255890,265.798492 325.807953,275.963654 
	C327.769958,283.778595 328.650665,292.034912 328.764221,300.112457 
	C329.115601,325.106964 328.849365,350.109924 328.869904,375.109528 
	C328.875854,382.337402 331.581543,384.973999 338.873016,384.993256 
	C350.539459,385.024109 362.206055,385.020050 373.872559,384.995026 
	C381.431213,384.978821 384.085175,382.354980 384.085388,374.799683 
	C384.086090,346.466736 384.306610,318.130005 383.887909,289.802917 
	C383.738464,279.694427 382.632599,269.498840 380.874756,259.535034 
	C376.257446,233.363770 361.378326,217.133774 337.565094,212.571915 
	C329.646362,211.054947 321.299194,210.911118 313.210907,211.336761 
	C299.759338,212.044647 287.401642,216.208420 277.094543,226.608231 
M137.838028,246.499924 
	C137.838806,289.135040 137.826599,331.770172 137.852463,374.405304 
	C137.857086,382.011230 140.843094,384.964844 148.432007,384.992188 
	C158.924103,385.029968 169.416458,385.007263 179.908691,385.000336 
	C189.153351,384.994263 191.909088,382.299042 191.913513,373.191101 
	C191.925644,348.209564 191.918076,323.228058 191.918091,298.246521 
	C191.918106,273.598083 191.936707,248.949600 191.906036,224.301193 
	C191.897018,217.048782 189.019501,213.594711 182.448181,213.498276 
	C170.626282,213.324783 158.797867,213.319839 146.976349,213.507782 
	C140.876907,213.604736 137.947128,216.837463 137.865784,223.016846 
	C137.767136,230.510025 137.839600,238.005447 137.838028,246.499924 
M192.646362,142.893967 
	C181.476120,129.354263 164.689072,125.257477 149.696167,132.412201 
	C135.444473,139.213211 127.280197,155.337875 130.417221,170.488678 
	C133.412323,184.954086 143.989914,195.460373 158.360550,198.243668 
	C172.064529,200.897842 186.141663,194.975830 193.904037,183.291138 
	C201.996689,171.109283 201.687592,156.553604 192.646362,142.893967 
z"/>
<path fill="#000000" opacity="1.000000" stroke="none" 
	d="
M513.000000,224.531342 
	C512.336487,224.217407 511.180878,223.492661 511.081085,222.643799 
	C508.196625,198.103073 501.050690,174.845596 491.177734,152.224625 
	C481.912018,130.994934 469.839172,111.529861 455.105713,93.886406 
	C434.679504,69.425842 410.691589,48.992355 382.766693,33.234196 
	C360.641479,20.748854 337.067200,12.274072 312.539062,6.271639 
	C305.585480,4.569978 298.338501,4.076766 291.238007,2.953962 
	C290.356598,2.814584 289.548798,2.209600 288.853455,1.410184 
	C363.593719,1.000000 438.187408,1.000000 513.000000,1.000000 
	C513.000000,75.354088 513.000000,149.708389 513.000000,224.531342 
z"/>
<path fill="#000000" opacity="1.000000" stroke="none" 
	d="
M1.000000,289.468658 
	C1.663363,289.788147 2.822011,290.520569 2.917949,291.372589 
	C5.594249,315.141510 12.569781,337.664276 21.811403,359.649628 
	C30.180017,379.558167 41.185802,397.948761 54.467396,414.740631 
	C74.135262,439.606598 97.495628,460.586090 124.834488,477.036377 
	C148.747803,491.425385 174.430115,501.213989 201.424454,507.717773 
	C208.399155,509.398163 215.651276,509.917908 222.763992,511.046265 
	C223.646042,511.186188 224.454102,511.792450 225.148224,512.591309 
	C150.406296,513.000000 75.812599,513.000000 1.000000,513.000000 
	C1.000000,438.645905 1.000000,364.291626 1.000000,289.468658 
z"/>
<path fill="#000000" opacity="1.000000" stroke="none" 
	d="
M289.468658,513.000000 
	C289.784088,512.336609 290.512543,511.177185 291.360382,511.082092 
	C315.072723,508.422302 337.554260,501.492676 359.486725,492.278076 
	C379.365204,483.926453 397.849426,473.068359 414.442902,459.601593 
	C427.852600,448.718811 439.958679,436.096893 451.822815,423.475433 
	C467.428131,406.874084 479.127869,387.459564 488.949951,366.974060 
	C498.298157,347.476807 504.789825,326.989899 508.982086,305.780457 
	C510.104889,300.099884 511.117798,294.397552 512.590576,288.852600 
	C513.000000,363.593719 513.000000,438.187408 513.000000,513.000000 
	C438.645905,513.000000 364.291626,513.000000 289.468658,513.000000 
z"/>
<path fill="#000000" opacity="1.000000" stroke="none" 
	d="
M224.531342,1.000003 
	C224.214218,1.663359 223.484924,2.820535 222.634384,2.917825 
	C201.537430,5.331036 181.328674,11.057245 161.588516,18.742115 
	C136.787720,28.397102 114.231979,41.957413 93.871887,58.881348 
	C71.307228,77.637794 52.212158,99.566002 36.963615,124.819923 
	C22.524372,148.733505 12.821185,174.464981 6.255745,201.458328 
	C4.639161,208.104797 4.077383,215.005676 2.954320,221.776932 
	C2.808069,222.658722 2.203227,223.464432 1.405400,224.152695 
	C1.000000,149.739456 1.000000,75.478920 1.000000,1.000000 
	C75.354088,1.000000 149.708389,1.000000 224.531342,1.000003 
z"/>
<path fill="#FEFEFF" opacity="1.000000" stroke="none" 
	d="
M277.344757,226.356323 
	C287.401642,216.208420 299.759338,212.044647 313.210907,211.336761 
	C321.299194,210.911118 329.646362,211.054947 337.565094,212.571915 
	C361.378326,217.133774 376.257446,233.363770 380.874756,259.535034 
	C382.632599,269.498840 383.738464,279.694427 383.887909,289.802917 
	C384.306610,318.130005 384.086090,346.466736 384.085388,374.799683 
	C384.085175,382.354980 381.431213,384.978821 373.872559,384.995026 
	C362.206055,385.020050 350.539459,385.024109 338.873016,384.993256 
	C331.581543,384.973999 328.875854,382.337402 328.869904,375.109528 
	C328.849365,350.109924 329.115601,325.106964 328.764221,300.112457 
	C328.650665,292.034912 327.769958,283.778595 325.807953,275.963654 
	C323.255890,265.798492 316.316010,259.311371 305.479095,257.958710 
	C293.772339,256.497437 283.998077,259.767334 277.495850,270.182922 
	C272.328888,278.459656 270.234924,287.682770 270.194977,297.319977 
	C270.088501,322.985870 270.168579,348.652557 270.152527,374.318909 
	C270.147369,382.565399 267.695496,384.988770 259.428864,384.998474 
	C248.262344,385.011566 237.095657,385.036682 225.929337,384.988495 
	C219.077728,384.958923 216.154343,382.113586 216.149643,375.262939 
	C216.114914,324.596893 216.115631,273.930847 216.149246,223.264816 
	C216.153824,216.369064 218.989243,213.513214 225.874344,213.460739 
	C237.540192,213.371811 249.207733,213.368774 260.873505,213.461533 
	C267.539307,213.514526 270.257080,216.275024 270.433929,222.873459 
	C270.521759,226.151840 270.449188,229.434509 270.449188,234.064896 
	C273.260132,230.910767 275.177338,228.759506 277.344757,226.356323 
z"/>
<path fill="#FEFEFF" opacity="1.000000" stroke="none" 
	d="
M137.838028,245.999908 
	C137.839600,238.005447 137.767136,230.510025 137.865784,223.016846 
	C137.947128,216.837463 140.876907,213.604736 146.976349,213.507782 
	C158.797867,213.319839 170.626282,213.324783 182.448181,213.498276 
	C189.019501,213.594711 191.897018,217.048782 191.906036,224.301193 
	C191.936707,248.949600 191.918106,273.598083 191.918091,298.246521 
	C191.918076,323.228058 191.925644,348.209564 191.913513,373.191101 
	C191.909088,382.299042 189.153351,384.994263 179.908691,385.000336 
	C169.416458,385.007263 158.924103,385.029968 148.432007,384.992188 
	C140.843094,384.964844 137.857086,382.011230 137.852463,374.405304 
	C137.826599,331.770172 137.838806,289.135040 137.838028,245.999908 
z"/>
<path fill="#FDFEFF" opacity="1.000000" stroke="none" 
	d="
M192.852600,143.191727 
	C201.687592,156.553604 201.996689,171.109283 193.904037,183.291138 
	C186.141663,194.975830 172.064529,200.897842 158.360550,198.243668 
	C143.989914,195.460373 133.412323,184.954086 130.417221,170.488678 
	C127.280197,155.337875 135.444473,139.213211 149.696167,132.412201 
	C164.689072,125.257477 181.476120,129.354263 192.852600,143.191727 
z"/>
</svg>